<svg id="MKP_Logo_Webseite" xmlns="http://www.w3.org/2000/svg" viewBox="0 0 287.159 40">
  <defs>
    <style>
      .cls-1 {
        fill: #BDBDBD;
      }

      .cls-2 {
        fill: #BDBDBD;
      }
    </style>
  </defs>
  <path id="Combined-Shape-Copy" class="cls-1" d="M62.847,40H39.124L62.847,8.518V40Zm72.463,0h-32.7L87.364,19.766,102.259,0H135.31a1.835,1.835,0,0,1,1.833,1.833V38.167A1.835,1.835,0,0,1,135.31,40ZM93.431,40H72.117L82.774,25.858,93.43,40ZM29.854,40H6.741L29.854,9.328V40ZM0,36.763V1.833A1.835,1.835,0,0,1,1.833,0H27.7L0,36.76Zm70.178-6.374V0h22.9L70.18,30.387Zm-32.993,0V0h22.9l-22.9,30.387Z" transform="translate(0 0)"/>
  <path id="Marx-Krontal-Partner-Copy-2" class="cls-2" d="M78.56,34.329a.733.733,0,0,1-.592-.336l-3.152-4.1H71.6v3.792a.632.632,0,1,1-1.264,0v-10a.64.64,0,0,1,.624-.64h4.192a4.44,4.44,0,0,1,3.184,1.121,3.083,3.083,0,0,1,.864,2.208v.031a3.251,3.251,0,0,1-2.992,3.248l2.784,3.585a.681.681,0,0,1,.208.464A.657.657,0,0,1,78.56,34.329ZM71.6,24.217v4.544h3.44c1.75,0,2.88-.9,2.88-2.3v-.032c0-1.382-1.071-2.208-2.864-2.208Zm-25,10.111a.624.624,0,0,1-.608-.624V23.625A.633.633,0,0,1,46.614,23h.175a.772.772,0,0,1,.64.368l6.8,8.672V23.594a.616.616,0,1,1,1.232,0V33.705a.565.565,0,0,1-.576.592h-.064a.877.877,0,0,1-.656-.384l-6.944-8.879v8.672A.624.624,0,0,1,46.6,34.329Zm-7.87,0a.641.641,0,0,1-.64-.64V24.217H34.84a.585.585,0,0,1-.592-.576.6.6,0,0,1,.592-.592h7.776a.6.6,0,0,1,.592.592.585.585,0,0,1-.592.576H39.368v9.472A.641.641,0,0,1,38.728,34.329Zm-7.325,0a.733.733,0,0,1-.592-.336l-3.152-4.1H24.443v3.792a.632.632,0,1,1-1.264,0v-10a.64.64,0,0,1,.624-.64h4.192a4.44,4.44,0,0,1,3.184,1.121,3.083,3.083,0,0,1,.864,2.208v.031a3.251,3.251,0,0,1-2.992,3.248l2.784,3.585a.681.681,0,0,1,.208.464A.657.657,0,0,1,31.4,34.329Zm-6.96-10.111v4.544h3.44c1.75,0,2.88-.9,2.88-2.3v-.032c0-1.382-1.071-2.208-2.864-2.208ZM19.661,34.329a.688.688,0,0,1-.624-.464L17.87,31.289H11.725L10.557,33.9a.627.627,0,0,1-.608.432.57.57,0,0,1-.576-.576.735.735,0,0,1,.08-.336L14,23.481a.822.822,0,0,1,.8-.56h.065a.8.8,0,0,1,.784.56L20.19,33.4a.921.921,0,0,1,.079.32A.608.608,0,0,1,19.661,34.329ZM14.8,24.409l-2.576,5.728h5.153ZM.624,34.329A.64.64,0,0,1,0,33.689v-10a.64.64,0,0,1,.624-.64H4.192A4.677,4.677,0,0,1,7.236,24a3.272,3.272,0,0,1,1.148,2.6v.031a3.314,3.314,0,0,1-1.306,2.738,5.07,5.07,0,0,1-3.094.926H1.264v3.392A.641.641,0,0,1,.624,34.329Zm.64-10.111v4.927H4.032c1.837,0,3.072-.99,3.072-2.463v-.032c0-1.523-1.124-2.432-3.008-2.432ZM66.786,34.25h-7.04a.641.641,0,0,1-.624-.641v-9.92a.64.64,0,0,1,.624-.64h6.961a.576.576,0,0,1,0,1.152H60.386v3.824h5.6a.584.584,0,0,1,.576.576.577.577,0,0,1-.576.576h-5.6V33.1h6.4a.57.57,0,0,1,.576.576A.577.577,0,0,1,66.786,34.25ZM85.949,11.584a5.608,5.608,0,0,1-4.126-1.722,5.836,5.836,0,0,1-1.57-4.038V5.792a5.861,5.861,0,0,1,1.586-4.054,5.805,5.805,0,0,1,8.268-.016A5.836,5.836,0,0,1,91.678,5.76v.032a5.857,5.857,0,0,1-1.586,4.054A5.636,5.636,0,0,1,85.949,11.584Zm0-10.416A4.393,4.393,0,0,0,81.565,5.76v.032a4.475,4.475,0,0,0,4.416,4.623,4.393,4.393,0,0,0,4.384-4.592V5.792A4.476,4.476,0,0,0,85.949,1.168Zm41.032,10.3a.688.688,0,0,1-.624-.464l-1.168-2.576h-6.143l-1.168,2.608a.631.631,0,0,1-.608.432.577.577,0,0,1-.576-.576.677.677,0,0,1,.08-.337L121.317.624a.824.824,0,0,1,.8-.56h.064a.8.8,0,0,1,.784.56l4.544,9.921a.846.846,0,0,1,.08.319A.609.609,0,0,1,126.981,11.472Zm-4.864-9.921L119.542,7.28h5.152Zm-10.542,9.921a.641.641,0,0,1-.64-.64V1.36h-3.248A.584.584,0,0,1,107.1.784a.6.6,0,0,1,.591-.592h7.776a.6.6,0,0,1,.592.592.585.585,0,0,1-.592.576h-3.248v9.472A.641.641,0,0,1,111.576,11.472Zm-16.125,0a.624.624,0,0,1-.607-.625V.768a.632.632,0,0,1,.624-.624h.176a.775.775,0,0,1,.64.368l6.8,8.671V.736a.616.616,0,1,1,1.232,0V10.848a.565.565,0,0,1-.576.592h-.064a.881.881,0,0,1-.656-.384L96.075,2.176v8.671A.625.625,0,0,1,95.45,11.472Zm-18.538,0a.733.733,0,0,1-.592-.337l-3.152-4.1H69.952v3.793a.632.632,0,1,1-1.264,0v-10a.64.64,0,0,1,.624-.64H73.5a4.443,4.443,0,0,1,3.184,1.121,3.083,3.083,0,0,1,.864,2.208v.032A3.253,3.253,0,0,1,74.56,6.8l2.785,3.584a.681.681,0,0,1,.208.464A.657.657,0,0,1,76.912,11.472ZM69.952,1.36V5.9h3.441c1.75,0,2.88-.9,2.88-2.3V3.568c0-1.382-1.071-2.208-2.865-2.208ZM65.138,11.472a.6.6,0,0,1-.512-.288l-4.176-5.2L58.035,8.4v2.433a.632.632,0,1,1-1.264,0V.752a.632.632,0,1,1,1.264,0V6.88L64.418.336a.8.8,0,0,1,.5-.224.633.633,0,0,1,.608.625.628.628,0,0,1-.208.448L61.347,5.12,65.6,10.368a.783.783,0,0,1,.175.464A.657.657,0,0,1,65.138,11.472Zm-17.419,0a.681.681,0,0,1-.56-.32L43.624,6.56,40.136,11.1a.785.785,0,0,1-.625.368.584.584,0,0,1-.56-.592.685.685,0,0,1,.176-.448L42.872,5.68,39.32,1.2a.775.775,0,0,1-.208-.48.624.624,0,0,1,.624-.608.687.687,0,0,1,.56.32l3.376,4.384L47,.48a.789.789,0,0,1,.608-.368A.585.585,0,0,1,48.184.7a.685.685,0,0,1-.176.448L44.44,5.664l3.7,4.72a.682.682,0,0,1,.209.464A.625.625,0,0,1,47.72,11.472Zm-12.077,0a.733.733,0,0,1-.592-.337L31.9,7.04H28.683v3.793a.632.632,0,1,1-1.264,0v-10a.641.641,0,0,1,.625-.64h4.191a4.443,4.443,0,0,1,3.184,1.121,3.08,3.08,0,0,1,.864,2.208v.032A3.252,3.252,0,0,1,33.291,6.8l2.784,3.584a.681.681,0,0,1,.208.464A.657.657,0,0,1,35.643,11.472ZM28.683,1.36V5.9h3.44C33.872,5.9,35,5,35,3.6V3.568c0-1.382-1.071-2.208-2.864-2.208ZM23.9,11.472a.688.688,0,0,1-.624-.464L22.109,8.432H15.965L14.8,11.04a.629.629,0,0,1-.607.432.577.577,0,0,1-.576-.576.668.668,0,0,1,.08-.337L18.238.624a.822.822,0,0,1,.8-.56H19.1a.8.8,0,0,1,.784.56l4.544,9.921a.846.846,0,0,1,.08.319A.609.609,0,0,1,23.9,11.472ZM19.038,1.552,16.461,7.28h5.153ZM10.1,11.472a.657.657,0,0,1-.64-.64V2.48L5.872,7.744a.616.616,0,0,1-.527.32.641.641,0,0,1-.544-.32L1.232,2.5v8.352a.618.618,0,0,1-.624.625A.61.61,0,0,1,0,10.848V.768A.632.632,0,0,1,.624.144H.768A.7.7,0,0,1,1.36.48l4,6.017L9.36.48A.675.675,0,0,1,9.952.144H10.1a.632.632,0,0,1,.624.624V10.832A.64.64,0,0,1,10.1,11.472Zm127.474-.08h-6.448a.64.64,0,0,1-.624-.64v-10a.632.632,0,1,1,1.264,0v9.472h5.808a.585.585,0,0,1,.576.592A.577.577,0,0,1,137.57,11.392Z" transform="translate(149.013 2.547)"/>
</svg>
